# xmcd
#
# Track frame offsets:
#	150
#	13940
#	26526
#	49333
#	63386
#	77703
#	92938
#	107833
#	124873
#	134466
#	149942
#	169936
#
# Disc length: 2439 seconds
#
# Revision: 0
# Processed by: cddbd v1.5.1PL0 Copyright (c) Steve Scherf et al.
# Submitted via: dBpowerAMP V4.0
#
DISCID=b509850c
DTITLE=Blues Kings - Blues Kings
DYEAR=2000
DGENRE=Blues
TTITLE0=You Give Me Nothing But the Blues
TTITLE1=Crazy Mixed Up World
TTITLE2=Standing Around Crying
TTITLE3=Sally Jane
TTITLE4=You're So Fine
TTITLE5=I Got a Feeling
TTITLE6="T Bone" Shuffle
TTITLE7=I Hear You Knockin'
TTITLE8=Guitar Rhumba
TTITLE9=Reconsider Baby
TTITLE10=It Takes a Big Man to Cry
TTITLE11=Cool Disposition
EXTD=
EXTT0=
EXTT1=
EXTT2=
EXTT3=
EXTT4=
EXTT5=
EXTT6=
EXTT7=
EXTT8=
EXTT9=
EXTT10=
EXTT11=
PLAYORDER=
